<mxfile host="65bd71144e">
    <diagram id="Uy8hE2B9TVR9OKSo41c4" name="Page-1">
        <mxGraphModel dx="780" dy="374" grid="1" gridSize="10" guides="1" tooltips="1" connect="1" arrows="1" fold="1" page="1" pageScale="1" pageWidth="827" pageHeight="1169" math="0" shadow="0">
            <root>
                <mxCell id="0"/>
                <mxCell id="1" parent="0"/>
                <mxCell id="2" value="" style="rounded=0;whiteSpace=wrap;html=1;strokeColor=#78FFD2;fillColor=#FFFF33;" vertex="1" parent="1">
                    <mxGeometry x="90" y="40" width="520" height="320" as="geometry"/>
                </mxCell>
                <mxCell id="3" value="Root Layout" style="text;html=1;strokeColor=none;fillColor=none;align=center;verticalAlign=middle;whiteSpace=wrap;rounded=0;" vertex="1" parent="1">
                    <mxGeometry x="80" y="40" width="140" height="30" as="geometry"/>
                </mxCell>
                <mxCell id="4" value="" style="rounded=0;whiteSpace=wrap;html=1;strokeColor=#78FFD2;fillColor=#99FF33;" vertex="1" parent="1">
                    <mxGeometry x="120" y="70" width="460" height="260" as="geometry"/>
                </mxCell>
                <mxCell id="5" value="Layout của cart" style="text;html=1;strokeColor=none;fillColor=none;align=center;verticalAlign=middle;whiteSpace=wrap;rounded=0;" vertex="1" parent="1">
                    <mxGeometry x="130" y="80" width="130" height="30" as="geometry"/>
                </mxCell>
                <mxCell id="6" value="" style="rounded=0;whiteSpace=wrap;html=1;strokeColor=#78FFD2;fillColor=#00FFFF;" vertex="1" parent="1">
                    <mxGeometry x="160" y="110" width="390" height="190" as="geometry"/>
                </mxCell>
                <mxCell id="7" value="Page của cart" style="text;html=1;strokeColor=none;fillColor=none;align=center;verticalAlign=middle;whiteSpace=wrap;rounded=0;" vertex="1" parent="1">
                    <mxGeometry x="160" y="120" width="130" height="30" as="geometry"/>
                </mxCell>
            </root>
        </mxGraphModel>
    </diagram>
</mxfile>